{
	"asset":{
		"generator":"Khronos glTF Blender I/O v4.0.44",
		"version":"2.0"
	},
	"scene":0,
	"scenes":[
		{
			"name":"Scene",
			"nodes":[
				17
			]
		}
	],
	"nodes":[
		{
			"mesh":0,
			"name":"beef_MeatColor_0"
		},
		{
			"children":[
				0
			],
			"name":"beef",
			"translation":[
				-0.17855150997638702,
				9.244041442871094,
				-0.27198541164398193
			]
		},
		{
			"mesh":1,
			"name":"Bottom_bun_BunColor_0"
		},
		{
			"mesh":2,
			"name":"Bottom_bun_Mat.013_0"
		},
		{
			"children":[
				2,
				3
			],
			"name":"Bottom_bun",
			"rotation":[
				0,
				-0.9375051856040955,
				0,
				0.3479715585708618
			],
			"translation":[
				-0.17855150997638702,
				-9.421703338623047,
				-0.27198535203933716
			]
		},
		{
			"mesh":3,
			"name":"Cheese_CheeseColor_0"
		},
		{
			"children":[
				5
			],
			"name":"Cheese",
			"rotation":[
				0,
				-0.9375051856040955,
				0,
				0.3479715585708618
			],
			"translation":[
				0.29227808117866516,
				23.296499252319336,
				0.08174511790275574
			]
		},
		{
			"mesh":4,
			"name":"Lettuce_LettuceColor_0"
		},
		{
			"children":[
				7
			],
			"name":"Lettuce",
			"translation":[
				-0.17855150997638702,
				30.702943801879883,
				-0.2719822824001312
			]
		},
		{
			"mesh":5,
			"name":"tomato_TomatoColor_0"
		},
		{
			"children":[
				9
			],
			"name":"tomato",
			"translation":[
				-0.17855150997638702,
				28.244110107421875,
				-0.2719838619232178
			]
		},
		{
			"mesh":6,
			"name":"seeds_SeedsColor_0",
			"translation":[
				0,
				0,
				1.0013580322265625e-05
			]
		},
		{
			"children":[
				11
			],
			"name":"seeds",
			"rotation":[
				0.5142555832862854,
				0.3179192841053009,
				-0.21301165223121643,
				0.7675250172615051
			],
			"translation":[
				-25.749765396118164,
				-15.10085678100586,
				-23.75934600830078
			]
		},
		{
			"children":[
				12
			],
			"name":"Seed",
			"translation":[
				0,
				22.973175048828125,
				0
			]
		},
		{
			"mesh":7,
			"name":"top_bun_1_BunColor_0"
		},
		{
			"children":[
				14
			],
			"name":"top_bun_1",
			"translation":[
				0,
				-20.391666412353516,
				0
			]
		},
		{
			"children":[
				13,
				15
			],
			"name":"Top_Bun",
			"translation":[
				-0.17855150997638702,
				65.195556640625,
				-0.27198153734207153
			]
		},
		{
			"children":[
				1,
				4,
				6,
				8,
				10,
				16
			],
			"name":"Sketchfab Model",
			"scale":[
				0.09283387660980225,
				0.09283389896154404,
				0.09283389896154404
			]
		}
	],
	"materials":[
		{
			"doubleSided":true,
			"name":"MeatColor",
			"pbrMetallicRoughness":{
				"baseColorFactor":[
					0.18886800110340118,
					0.07422389835119247,
					0,
					1
				],
				"metallicFactor":0,
				"roughnessFactor":0.7978234887123108
			}
		},
		{
			"doubleSided":true,
			"name":"BunColor",
			"pbrMetallicRoughness":{
				"baseColorFactor":[
					1,
					0.606086015701294,
					0.20938600599765778,
					1
				],
				"metallicFactor":0,
				"roughnessFactor":0.8799677491188049
			}
		},
		{
			"doubleSided":true,
			"name":"Mat.013",
			"pbrMetallicRoughness":{
				"baseColorFactor":[
					1,
					0.734499990940094,
					0.4099999964237213,
					1
				],
				"metallicFactor":0,
				"roughnessFactor":0.8376900553703308
			}
		},
		{
			"doubleSided":true,
			"name":"CheeseColor",
			"pbrMetallicRoughness":{
				"baseColorFactor":[
					1,
					0.6950569748878479,
					0,
					1
				],
				"metallicFactor":0,
				"roughnessFactor":0
			}
		},
		{
			"doubleSided":true,
			"name":"LettuceColor",
			"pbrMetallicRoughness":{
				"baseColorFactor":[
					0.16360700130462646,
					1,
					0.06323439627885818,
					1
				],
				"metallicFactor":0,
				"roughnessFactor":0.8404324650764465
			}
		},
		{
			"doubleSided":true,
			"name":"TomatoColor",
			"pbrMetallicRoughness":{
				"baseColorFactor":[
					1,
					0.09874819964170456,
					0,
					1
				],
				"metallicFactor":0,
				"roughnessFactor":0
			}
		},
		{
			"doubleSided":true,
			"name":"SeedsColor",
			"pbrMetallicRoughness":{
				"baseColorFactor":[
					1,
					0.9467740058898926,
					0.7045530080795288,
					1
				],
				"metallicFactor":0,
				"roughnessFactor":0.7906570434570312
			}
		}
	],
	"meshes":[
		{
			"name":"beef_MeatColor_0",
			"primitives":[
				{
					"attributes":{
						"POSITION":0,
						"NORMAL":1,
						"TEXCOORD_0":2
					},
					"indices":3,
					"material":0
				}
			]
		},
		{
			"name":"Bottom_bun_BunColor_0",
			"primitives":[
				{
					"attributes":{
						"POSITION":4,
						"NORMAL":5,
						"TEXCOORD_0":6
					},
					"indices":7,
					"material":1
				}
			]
		},
		{
			"name":"Bottom_bun_Mat.013_0",
			"primitives":[
				{
					"attributes":{
						"POSITION":8,
						"NORMAL":9,
						"TEXCOORD_0":10
					},
					"indices":11,
					"material":2
				}
			]
		},
		{
			"name":"Cheese_CheeseColor_0",
			"primitives":[
				{
					"attributes":{
						"POSITION":12,
						"NORMAL":13,
						"TEXCOORD_0":14
					},
					"indices":15,
					"material":3
				}
			]
		},
		{
			"name":"Lettuce_LettuceColor_0",
			"primitives":[
				{
					"attributes":{
						"POSITION":16,
						"NORMAL":17,
						"TEXCOORD_0":18
					},
					"indices":19,
					"material":4
				}
			]
		},
		{
			"name":"tomato_TomatoColor_0",
			"primitives":[
				{
					"attributes":{
						"POSITION":20,
						"NORMAL":21,
						"TEXCOORD_0":22,
						"TEXCOORD_1":23
					},
					"indices":24,
					"material":5
				}
			]
		},
		{
			"name":"seeds_SeedsColor_0",
			"primitives":[
				{
					"attributes":{
						"POSITION":25,
						"NORMAL":26,
						"TEXCOORD_0":27
					},
					"indices":28,
					"material":6
				}
			]
		},
		{
			"name":"top_bun_1_BunColor_0",
			"primitives":[
				{
					"attributes":{
						"POSITION":29,
						"NORMAL":30,
						"TEXCOORD_0":31
					},
					"indices":32,
					"material":1
				}
			]
		}
	],
	"accessors":[
		{
			"bufferView":0,
			"componentType":5126,
			"count":81,
			"max":[
				56.26858901977539,
				10.918956756591797,
				56.16229248046875
			],
			"min":[
				-56.26858901977539,
				-10.927933692932129,
				-56.16229248046875
			],
			"type":"VEC3"
		},
		{
			"bufferView":1,
			"componentType":5126,
			"count":81,
			"type":"VEC3"
		},
		{
			"bufferView":2,
			"componentType":5126,
			"count":81,
			"type":"VEC2"
		},
		{
			"bufferView":3,
			"componentType":5123,
			"count":402,
			"type":"SCALAR"
		},
		{
			"bufferView":4,
			"componentType":5126,
			"count":591,
			"max":[
				58.33708953857422,
				8.92493724822998,
				58.33708953857422
			],
			"min":[
				-58.33708953857422,
				-9.223649024963379,
				-58.33708953857422
			],
			"type":"VEC3"
		},
		{
			"bufferView":5,
			"componentType":5126,
			"count":591,
			"type":"VEC3"
		},
		{
			"bufferView":6,
			"componentType":5126,
			"count":591,
			"type":"VEC2"
		},
		{
			"bufferView":7,
			"componentType":5123,
			"count":3132,
			"type":"SCALAR"
		},
		{
			"bufferView":8,
			"componentType":5126,
			"count":184,
			"max":[
				54.88106155395508,
				9.223649024963379,
				54.88106155395508
			],
			"min":[
				-54.88106155395508,
				8.92493724822998,
				-54.88106155395508
			],
			"type":"VEC3"
		},
		{
			"bufferView":9,
			"componentType":5126,
			"count":184,
			"type":"VEC3"
		},
		{
			"bufferView":10,
			"componentType":5126,
			"count":184,
			"type":"VEC2"
		},
		{
			"bufferView":11,
			"componentType":5123,
			"count":756,
			"type":"SCALAR"
		},
		{
			"bufferView":12,
			"componentType":5126,
			"count":1332,
			"max":[
				64.7419204711914,
				2.6156563758850098,
				64.48995971679688
			],
			"min":[
				-64.6774673461914,
				-19.78290367126465,
				-64.42909240722656
			],
			"type":"VEC3"
		},
		{
			"bufferView":13,
			"componentType":5126,
			"count":1332,
			"type":"VEC3"
		},
		{
			"bufferView":14,
			"componentType":5126,
			"count":1332,
			"type":"VEC2"
		},
		{
			"bufferView":15,
			"componentType":5123,
			"count":6720,
			"type":"SCALAR"
		},
		{
			"bufferView":16,
			"componentType":5126,
			"count":2760,
			"max":[
				68.75765228271484,
				6.599707126617432,
				68.75765228271484
			],
			"min":[
				-68.75765228271484,
				-2.4937844276428223,
				-68.75765228271484
			],
			"type":"VEC3"
		},
		{
			"bufferView":17,
			"componentType":5126,
			"count":2760,
			"type":"VEC3"
		},
		{
			"bufferView":18,
			"componentType":5126,
			"count":2760,
			"type":"VEC2"
		},
		{
			"bufferView":19,
			"componentType":5123,
			"count":14688,
			"type":"SCALAR"
		},
		{
			"bufferView":20,
			"componentType":5126,
			"count":738,
			"max":[
				58.43414306640625,
				4.799601078033447,
				58.43414306640625
			],
			"min":[
				-58.43414306640625,
				-4.799601078033447,
				-58.43414306640625
			],
			"type":"VEC3"
		},
		{
			"bufferView":21,
			"componentType":5126,
			"count":738,
			"type":"VEC3"
		},
		{
			"bufferView":22,
			"componentType":5126,
			"count":738,
			"type":"VEC2"
		},
		{
			"bufferView":23,
			"componentType":5126,
			"count":738,
			"type":"VEC2"
		},
		{
			"bufferView":24,
			"componentType":5123,
			"count":3888,
			"type":"SCALAR"
		},
		{
			"bufferView":25,
			"componentType":5126,
			"count":6137,
			"max":[
				60.40800857543945,
				72.54537963867188,
				56.950836181640625
			],
			"min":[
				-53.7651481628418,
				-30.656341552734375,
				-0.8938978314399719
			],
			"type":"VEC3"
		},
		{
			"bufferView":26,
			"componentType":5126,
			"count":6137,
			"type":"VEC3"
		},
		{
			"bufferView":27,
			"componentType":5126,
			"count":6137,
			"type":"VEC2"
		},
		{
			"bufferView":28,
			"componentType":5123,
			"count":30096,
			"type":"SCALAR"
		},
		{
			"bufferView":29,
			"componentType":5126,
			"count":617,
			"max":[
				59.39786911010742,
				34.54948806762695,
				59.39786911010742
			],
			"min":[
				-59.39786911010742,
				-11.61994457244873,
				-59.39786911010742
			],
			"type":"VEC3"
		},
		{
			"bufferView":30,
			"componentType":5126,
			"count":617,
			"type":"VEC3"
		},
		{
			"bufferView":31,
			"componentType":5126,
			"count":617,
			"type":"VEC2"
		},
		{
			"bufferView":32,
			"componentType":5123,
			"count":1944,
			"type":"SCALAR"
		}
	],
	"bufferViews":[
		{
			"buffer":0,
			"byteLength":972,
			"byteOffset":0,
			"target":34962
		},
		{
			"buffer":0,
			"byteLength":972,
			"byteOffset":972,
			"target":34962
		},
		{
			"buffer":0,
			"byteLength":648,
			"byteOffset":1944,
			"target":34962
		},
		{
			"buffer":0,
			"byteLength":804,
			"byteOffset":2592,
			"target":34963
		},
		{
			"buffer":0,
			"byteLength":7092,
			"byteOffset":3396,
			"target":34962
		},
		{
			"buffer":0,
			"byteLength":7092,
			"byteOffset":10488,
			"target":34962
		},
		{
			"buffer":0,
			"byteLength":4728,
			"byteOffset":17580,
			"target":34962
		},
		{
			"buffer":0,
			"byteLength":6264,
			"byteOffset":22308,
			"target":34963
		},
		{
			"buffer":0,
			"byteLength":2208,
			"byteOffset":28572,
			"target":34962
		},
		{
			"buffer":0,
			"byteLength":2208,
			"byteOffset":30780,
			"target":34962
		},
		{
			"buffer":0,
			"byteLength":1472,
			"byteOffset":32988,
			"target":34962
		},
		{
			"buffer":0,
			"byteLength":1512,
			"byteOffset":34460,
			"target":34963
		},
		{
			"buffer":0,
			"byteLength":15984,
			"byteOffset":35972,
			"target":34962
		},
		{
			"buffer":0,
			"byteLength":15984,
			"byteOffset":51956,
			"target":34962
		},
		{
			"buffer":0,
			"byteLength":10656,
			"byteOffset":67940,
			"target":34962
		},
		{
			"buffer":0,
			"byteLength":13440,
			"byteOffset":78596,
			"target":34963
		},
		{
			"buffer":0,
			"byteLength":33120,
			"byteOffset":92036,
			"target":34962
		},
		{
			"buffer":0,
			"byteLength":33120,
			"byteOffset":125156,
			"target":34962
		},
		{
			"buffer":0,
			"byteLength":22080,
			"byteOffset":158276,
			"target":34962
		},
		{
			"buffer":0,
			"byteLength":29376,
			"byteOffset":180356,
			"target":34963
		},
		{
			"buffer":0,
			"byteLength":8856,
			"byteOffset":209732,
			"target":34962
		},
		{
			"buffer":0,
			"byteLength":8856,
			"byteOffset":218588,
			"target":34962
		},
		{
			"buffer":0,
			"byteLength":5904,
			"byteOffset":227444,
			"target":34962
		},
		{
			"buffer":0,
			"byteLength":5904,
			"byteOffset":233348,
			"target":34962
		},
		{
			"buffer":0,
			"byteLength":7776,
			"byteOffset":239252,
			"target":34963
		},
		{
			"buffer":0,
			"byteLength":73644,
			"byteOffset":247028,
			"target":34962
		},
		{
			"buffer":0,
			"byteLength":73644,
			"byteOffset":320672,
			"target":34962
		},
		{
			"buffer":0,
			"byteLength":49096,
			"byteOffset":394316,
			"target":34962
		},
		{
			"buffer":0,
			"byteLength":60192,
			"byteOffset":443412,
			"target":34963
		},
		{
			"buffer":0,
			"byteLength":7404,
			"byteOffset":503604,
			"target":34962
		},
		{
			"buffer":0,
			"byteLength":7404,
			"byteOffset":511008,
			"target":34962
		},
		{
			"buffer":0,
			"byteLength":4936,
			"byteOffset":518412,
			"target":34962
		},
		{
			"buffer":0,
			"byteLength":3888,
			"byteOffset":523348,
			"target":34963
		}
	],
	"buffers":[
		{
			"byteLength":527236,
			"uri":"untitled.bin"
		}
	]
}
